<svg width="27" height="38" viewBox="0 0 27 38" fill="none" xmlns="http://www.w3.org/2000/svg">
<path d="M19.3812 28.45C20.09 26.0949 21.5591 24.0868 23.0135 22.086C23.3975 21.5618 23.7814 21.0377 24.1505 20.5061C25.6123 18.402 26.4687 15.8549 26.4687 13.1011C26.4687 5.91766 20.651 0.100006 13.475 0.100006C6.29886 0.100006 0.481201 5.91766 0.481201 13.0938C0.481201 15.8475 1.33761 18.402 2.7994 20.4987C3.16855 21.0303 3.55245 21.5545 3.93636 22.0786C5.39815 24.0794 6.86733 26.0949 7.5687 28.4426H19.3812V28.45ZM13.475 37.9C16.7382 37.9 19.3812 35.257 19.3812 31.9938V30.8125H7.5687V31.9938C7.5687 35.257 10.2117 37.9 13.475 37.9ZM7.5687 13.0938C7.5687 13.7434 7.03714 14.275 6.38745 14.275C5.73776 14.275 5.2062 13.7434 5.2062 13.0938C5.2062 8.52379 8.90499 4.82501 13.475 4.82501C14.1246 4.82501 14.6562 5.35657 14.6562 6.00626C14.6562 6.65594 14.1246 7.18751 13.475 7.18751C10.2117 7.18751 7.5687 9.83055 7.5687 13.0938Z" fill="white"/>
</svg>
