<svg width="34" height="34" viewBox="0 0 34 34" fill="none" xmlns="http://www.w3.org/2000/svg">
<g clip-path="url(#clip0_1675_7198)">
<path d="M13.2145 3.68857C13.1258 3.50128 13.0799 3.2966 13.0801 3.08937C13.0801 1.80137 14.8329 0.759766 17.0001 0.759766C19.1673 0.759766 20.9201 1.80137 20.9201 3.08937C20.9203 3.2966 20.8744 3.50128 20.7857 3.68857H13.2145Z" fill="#6D4422"/>
<path d="M25.3885 11.8575C25.3885 11.8575 25.9127 3 16.9941 3H17.0003C8.08174 3 8.6059 11.8575 8.6059 11.8575L9.1603 13.08H24.8403L25.3885 11.8575Z" fill="#89582C"/>
<path d="M23.7201 24.2793C25.3539 24.2793 26.9207 24.9283 28.0759 26.0835C29.2311 27.2387 29.8801 28.8056 29.8801 30.4393V32.6793C29.8801 32.8278 29.8211 32.9703 29.7161 33.0753C29.6111 33.1803 29.4686 33.2393 29.3201 33.2393H4.68012C4.5316 33.2393 4.38916 33.1803 4.28414 33.0753C4.17912 32.9703 4.12012 32.8278 4.12012 32.6793V30.4393C4.12012 28.8056 4.76912 27.2387 5.92434 26.0835C7.07956 24.9283 8.64638 24.2793 10.2801 24.2793H23.7201Z" fill="#394C56"/>
<path d="M20.3601 21.3105V26.5185L18.1201 33.2385H15.8801L13.6401 26.5185V21.3105H20.3601Z" fill="#EEBD91"/>
<path d="M23.687 15.7423C23.5761 15.7693 23.4769 15.8317 23.4044 15.9199C23.3318 16.0082 23.2899 16.1176 23.285 16.2317C23.228 17.1197 22.9904 17.9868 22.5867 18.7798C22.1831 19.5729 21.6219 20.2752 20.9374 20.8439L18.8688 22.5009C18.3388 22.9264 17.6795 23.1583 16.9998 23.1583C16.3201 23.1583 15.6608 22.9264 15.1308 22.5009L13.0627 20.8439C12.3782 20.2753 11.8169 19.573 11.4132 18.7799C11.0096 17.9869 10.772 17.1198 10.7152 16.2317C10.7103 16.1175 10.6683 16.008 10.5957 15.9197C10.523 15.8314 10.4237 15.7691 10.3126 15.7423C10.0702 15.6943 9.84011 15.5978 9.636 15.4587C9.43189 15.3195 9.25801 15.1405 9.12479 14.9325C8.60007 14.0712 8.60007 13.5409 8.60007 11.9673C8.59502 11.8125 8.63128 11.6591 8.70512 11.523C8.77896 11.3868 8.88772 11.2727 9.02023 11.1925C9.15274 11.1123 9.30421 11.0688 9.45909 11.0665C9.61397 11.0642 9.76668 11.1031 9.90151 11.1794C10.11 11.3133 10.2869 11.4909 10.42 11.7C10.553 11.909 10.639 12.1445 10.6721 12.3901C10.6826 12.4568 10.719 12.5165 10.7735 12.5563C10.828 12.5961 10.896 12.6127 10.9627 12.6023C11.9539 12.4506 15.4427 11.7444 16.7111 9.17123C16.8234 8.95577 17.0057 8.78494 17.228 8.68683C17.4502 8.58872 17.6993 8.56917 17.9342 8.63139C19.4422 9.00435 22.3184 9.93115 23.0979 11.6996C23.1163 11.7433 23.1465 11.781 23.1851 11.8085C23.2236 11.8361 23.269 11.8524 23.3163 11.8557C23.3636 11.8591 23.4108 11.8492 23.4529 11.8273C23.4949 11.8053 23.53 11.7722 23.5543 11.7315C23.6839 11.5038 23.8703 11.3136 24.0953 11.1794C24.2302 11.1023 24.3833 11.0626 24.5387 11.0645C24.694 11.0664 24.8461 11.1097 24.9791 11.1901C25.1122 11.2704 25.2213 11.3848 25.2953 11.5214C25.3693 11.6581 25.4055 11.812 25.4001 11.9673C25.4001 13.5409 25.4001 14.0712 24.8754 14.9353C24.7418 15.1429 24.5678 15.3214 24.3636 15.4601C24.1594 15.5988 23.9292 15.6947 23.687 15.7423Z" fill="#E2AC7F"/>
<path d="M17.0003 33.2402H14.7603L13.0091 28.5636C12.9691 28.4569 12.8975 28.3649 12.8039 28.3C12.7102 28.235 12.5989 28.2002 12.485 28.2002H10.5698C10.4771 28.2002 10.3858 28.1773 10.3041 28.1334C10.2224 28.0895 10.153 28.026 10.1019 27.9486C10.0508 27.8712 10.0198 27.7824 10.0115 27.69C10.0032 27.5977 10.018 27.5047 10.0546 27.4195L11.4003 24.2802L13.6403 23.1602L17.0003 33.2402Z" fill="#F0F2F5"/>
<path d="M17.0005 33.2402H19.2405L20.9916 28.5636C21.0316 28.4569 21.1032 28.3649 21.1969 28.3C21.2905 28.235 21.4018 28.2002 21.5158 28.2002H23.431C23.5237 28.2002 23.615 28.1773 23.6966 28.1334C23.7783 28.0895 23.8478 28.026 23.8989 27.9486C23.9499 27.8712 23.981 27.7824 23.9892 27.69C23.9975 27.5977 23.9827 27.5047 23.9462 27.4195L22.6005 24.2802L20.3605 23.1602L17.0005 33.2402Z" fill="#F0F2F5"/>
</g>
<defs>
<clipPath id="clip0_1675_7198">
<rect width="33.6" height="33.6" fill="white" transform="translate(0.200195 0.199219)"/>
</clipPath>
</defs>
</svg>
