<svg width="17" height="14" viewBox="0 0 17 14" fill="none" xmlns="http://www.w3.org/2000/svg">
<path d="M2.27778 0.875C1.29722 0.875 0.5 1.65977 0.5 2.625V3.5H16.5V2.625C16.5 1.65977 15.7028 0.875 14.7222 0.875H2.27778ZM16.5 6.125H0.5V11.375C0.5 12.3402 1.29722 13.125 2.27778 13.125H14.7222C15.7028 13.125 16.5 12.3402 16.5 11.375V6.125ZM3.61111 9.625H5.38889C5.63333 9.625 5.83333 9.82187 5.83333 10.0625C5.83333 10.3031 5.63333 10.5 5.38889 10.5H3.61111C3.36667 10.5 3.16667 10.3031 3.16667 10.0625C3.16667 9.82187 3.36667 9.625 3.61111 9.625ZM6.72222 10.0625C6.72222 9.82187 6.92222 9.625 7.16667 9.625H10.7222C10.9667 9.625 11.1667 9.82187 11.1667 10.0625C11.1667 10.3031 10.9667 10.5 10.7222 10.5H7.16667C6.92222 10.5 6.72222 10.3031 6.72222 10.0625Z" fill="#1E9940"/>
</svg>
