<svg width="96" height="96" viewBox="0 0 96 96" fill="none" xmlns="http://www.w3.org/2000/svg">
<circle cx="48" cy="48" r="48" fill="#CF4A6A" fill-opacity="0.24"/>
<circle cx="48" cy="48" r="40" fill="#CF4A6A" fill-opacity="0.32"/>
<circle cx="48" cy="48" r="32" fill="#CF4A6A" fill-opacity="0.4"/>
<circle cx="48" cy="48" r="24" fill="#CF4A6A"/>
<path d="M55.6521 42.9026C56.3357 42.219 56.3357 41.1089 55.6521 40.4253C54.9686 39.7417 53.8584 39.7417 53.1748 40.4253L47.4162 46.1894L41.6521 40.4308C40.9686 39.7472 39.8584 39.7472 39.1748 40.4308C38.4912 41.1144 38.4912 42.2245 39.1748 42.9081L44.9389 48.6667L39.1803 54.4308C38.4967 55.1144 38.4967 56.2245 39.1803 56.9081C39.8639 57.5917 40.974 57.5917 41.6576 56.9081L47.4162 51.144L53.1803 56.9026C53.8639 57.5862 54.974 57.5862 55.6576 56.9026C56.3412 56.219 56.3412 55.1089 55.6576 54.4253L49.8936 48.6667L55.6521 42.9026Z" fill="white"/>
</svg>
