<svg width="34" height="34" viewBox="0 0 34 34" fill="none" xmlns="http://www.w3.org/2000/svg">
<g clip-path="url(#clip0_1675_7209)">
<path d="M16.7777 1.59961C12.4249 1.59961 8.90088 5.12358 8.90088 9.47638V22.8504C8.9006 22.9244 8.9149 22.9977 8.94298 23.0661C8.97105 23.1345 9.01233 23.1967 9.06448 23.2492C9.11662 23.3016 9.17859 23.3433 9.24685 23.3717C9.3151 23.4002 9.3883 23.415 9.46226 23.4151L24.0854 23.5359C24.2345 23.5364 24.3778 23.4777 24.4837 23.3726C24.5896 23.2676 24.6494 23.1247 24.65 22.9755V9.47631C24.65 5.12351 21.1305 1.60058 16.7777 1.60058V1.59961Z" fill="#0A2440"/>
<path d="M16.7775 1.59961C16.5839 1.59961 16.3943 1.61448 16.2041 1.62809C20.2976 1.91202 23.525 5.30982 23.525 9.47631V22.9756C23.5243 23.1079 23.477 23.2356 23.3914 23.3365C23.3058 23.4374 23.1874 23.5048 23.057 23.527L24.0852 23.5356C24.2344 23.5362 24.3777 23.4774 24.4836 23.3724C24.5895 23.2673 24.6493 23.1245 24.6499 22.9753V9.47612C24.6499 5.1233 21.1303 1.60045 16.7775 1.60045V1.59961Z" fill="#0A2440"/>
<path d="M9.46151 22.4102C6.66678 22.4102 4.40039 24.6821 4.40039 27.4768V32.5379C4.40098 32.6863 4.4602 32.8285 4.56515 32.9334C4.67009 33.0384 4.81225 33.0976 4.96066 33.0981H28.5866C28.735 33.0976 28.8771 33.0384 28.9821 32.9334C29.087 32.8285 29.1462 32.6863 29.1468 32.5379V27.4768C29.1468 24.6821 26.8794 22.4102 24.0846 22.4102H9.46151Z" fill="#FFCF4D"/>
<path d="M13.3975 18.1875V21.5217L13.5633 21.6832L16.7727 24.0991L20.1481 21.5218V18.1876L13.3975 18.1875Z" fill="#FFBE87"/>
<path d="M13.3975 18.1875V20.1572C14.3392 20.8644 15.5062 21.2888 16.7734 21.2888C18.0422 21.2888 19.2076 20.8631 20.1482 20.154V18.1875H13.3975Z" fill="#FFB06B"/>
<path d="M20.1494 20.7246L16.7729 24.0995L18.4603 25.7869L21.8368 22.412L20.1494 20.7246Z" fill="#FFE49D"/>
<path d="M13.3998 20.7246L16.773 24.0995L15.0856 25.7869L11.7124 22.412L13.3998 20.7246Z" fill="#FFE49D"/>
<path d="M22.9595 22.4102C25.7542 22.4102 28.0217 24.6821 28.0217 27.4768V32.5379C28.0211 32.6863 27.9619 32.8285 27.8569 32.9334C27.752 33.0384 27.6098 33.0976 27.4614 33.0981H28.5864C28.7348 33.0976 28.8769 33.0384 28.9819 32.9334C29.0868 32.8285 29.1461 32.6863 29.1466 32.5379V27.4768C29.1466 24.6821 26.8792 22.4102 24.0844 22.4102H22.9595Z" fill="#E8BD46"/>
<path d="M18.4784 8.34961C18.4784 8.34961 17.8994 11.162 15.1025 11.162C13.9692 11.1603 12.8415 11.1641 11.7101 11.1641C11.6931 11.1629 11.6741 11.1629 11.6563 11.1641C11.3959 11.1906 11.1882 11.3933 11.1553 11.653L11.1489 14.5367C11.1404 17.6447 13.6684 20.1635 16.7747 20.1635C19.8811 20.1635 22.3972 17.643 22.3972 14.5367L22.4015 12.8492H22.3993V11.7243C22.3995 11.5847 22.3477 11.4501 22.2541 11.3466C22.1605 11.243 22.0318 11.178 21.8929 11.1641C21.875 11.1632 21.8571 11.1632 21.8391 11.1641H21.838C21.838 11.1635 21.838 11.1624 21.838 11.1619V11.1608C19.0249 11.1545 18.4797 8.34961 18.4797 8.34961H18.4784Z" fill="#FFC99C"/>
<path d="M21.2787 11.1191L21.2766 12.7077L21.2723 14.5379C21.2723 17.4542 19.055 19.8536 16.2134 20.1362C16.3983 20.1554 16.5861 20.1647 16.7758 20.1647C19.8822 20.1647 22.3972 17.6442 22.3972 14.5378L22.4015 12.8504H22.3972V11.7255C22.3974 11.5859 22.3456 11.4512 22.252 11.3477C22.1584 11.2442 22.0297 11.1791 21.8908 11.1652C21.8729 11.1643 21.8549 11.1643 21.837 11.1652H21.8361C21.8361 11.1647 21.8361 11.1635 21.8361 11.1631V11.1622C21.6464 11.1617 21.4603 11.1473 21.278 11.1193L21.2787 11.1191Z" fill="#FFBE87"/>
</g>
<defs>
<clipPath id="clip0_1675_7209">
<rect width="33.6" height="33.6" fill="white" transform="translate(0.200195 0.199219)"/>
</clipPath>
</defs>
</svg>
