<svg width="34" height="34" viewBox="0 0 34 34" fill="none" xmlns="http://www.w3.org/2000/svg">
<g clip-path="url(#clip0_1675_7152)">
<path d="M13.9038 13.5195H20.0942V20.1999H13.9038V13.5195Z" fill="#F7BE56"/>
<path d="M14.4291 33.798H19.4183C20.7993 29.2635 22.1275 19.372 22.1275 19.372L20.0544 17.0293L17.0001 18.847L15.2773 18.3599L12.6637 17.6142C12.6637 17.6142 12.4382 18.6958 12.6637 22.7066C12.7591 24.403 13.5492 31.449 14.4291 33.798Z" fill="#D5D6DB"/>
<path d="M11.8659 8.36857C12.3209 8.29511 12.8129 8.99592 12.9649 9.93458C13.117 10.8732 12.8716 11.6944 12.4166 11.7678C11.9616 11.8413 11.4696 11.1405 11.3171 10.2018C11.1647 9.26315 11.4108 8.44242 11.8659 8.36857Z" fill="#FCD462"/>
<path d="M22.1318 8.36857C21.6768 8.29511 21.1844 8.99592 21.0324 9.93458C20.8803 10.8732 21.1257 11.6944 21.5807 11.7678C22.0357 11.8413 22.5281 11.1405 22.6802 10.2018C22.8322 9.26315 22.5869 8.44242 22.1318 8.36857Z" fill="#FCD462"/>
<path d="M16.9434 1.39258C14.2302 1.39258 11.828 3.80481 12.0305 9.19421C12.1723 12.9699 14.2303 16.0353 16.9434 16.0353C19.6565 16.0353 21.8563 12.9723 21.8563 9.19421C21.8563 5.41608 19.6566 1.39258 16.9434 1.39258Z" fill="#FCD462"/>
<path d="M22.0775 2.99578C21.601 2.43314 21.8567 0.552576 19.3321 0.400502C17.4635 0.287736 14.308 -0.574285 12.0189 2.40892C11.6218 2.9251 11.3903 4.27511 11.3232 4.92796C11.1495 6.6821 11.4277 8.4514 12.1312 10.0676C12.8347 11.6838 12.8606 6.27439 12.8888 5.56127C13.0103 2.49151 19.319 4.65637 19.6279 4.25295L19.7315 4.23945C19.7315 4.23945 21.3031 5.62917 21.3043 7.54865C21.3055 9.46812 21.8352 10.0677 21.8352 10.0677C21.8353 10.0676 23.9282 5.18128 22.0775 2.99578Z" fill="#2F4859"/>
<path d="M21.6914 18.0462L20.094 15.3449L17.0052 18.8003L13.9036 15.3438L12.3066 18.0462L14.5536 21.4845L16.9988 18.8479L19.4444 21.4845L21.6914 18.0462Z" fill="#EBF0F3"/>
<path d="M17.3454 33.7988C16.4866 30.3526 13.9104 22.6705 13.613 20.3588C13.4827 19.3161 13.3926 18.4438 13.3323 17.8021C13.262 17.0405 13.2131 16.5978 13.2131 16.5176C12.7819 17.2795 11.9005 17.8422 11.1182 18.3635C10.0816 18.9985 8.96593 19.494 7.79984 19.8374C5.79063 20.2392 4.28291 21.9115 4.09081 23.9514C3.93873 25.5869 3.7815 32.0052 3.63379 33.7987H17.3454V33.7988Z" fill="#3A556A"/>
<path d="M30.366 33.798C30.2183 32.0057 30.061 25.5874 29.909 23.9507C29.7177 21.9113 28.2115 20.2386 26.2031 19.8355C25.037 19.4921 23.9214 18.9966 22.8848 18.3616C22.0907 17.8403 21.235 17.3225 20.8136 16.5605C20.8136 16.5605 20.7592 16.9683 20.689 17.7517C20.629 18.3934 20.5385 19.2657 20.3983 20.3283C20.1041 22.635 18.2144 30.3345 17.3452 33.7985L30.366 33.798Z" fill="#3A556A"/>
<path d="M23.5725 23.2672L23.5701 23.166C23.5372 21.6706 22.8812 19.451 22.2511 17.9453C22.714 19.5733 23.2592 21.5726 23.254 23.058C22.853 23.2108 22.4556 23.3704 22.0585 23.5324L21.9017 23.5964L21.9576 23.7588L22.6219 25.6798C21.7134 26.9932 20.8411 28.3314 19.9532 29.6596C19.0693 31.0294 18.1839 32.3994 17.3452 33.7994C18.3379 32.5038 19.2849 31.176 20.2331 29.8494C21.1591 28.5081 22.1017 27.1775 23.0047 25.8203L23.0611 25.7357L23.0273 25.6432L22.3523 23.7973C22.7267 23.6385 23.1004 23.4796 23.4708 23.3121L23.5725 23.2672Z" fill="#3E6B82"/>
<path d="M11.7406 25.68L12.4049 23.759L12.4613 23.5966L12.3025 23.5327C11.9054 23.3711 11.5084 23.2111 11.1073 23.0586C11.1073 21.5617 11.7359 19.3229 11.8598 17.8594C11.4742 19.3567 10.8238 21.6712 10.7905 23.1662L10.7881 23.2674L10.8881 23.3123C11.2586 23.4799 11.6322 23.6391 12.0063 23.7975L11.3313 25.6435L11.2975 25.736L11.3543 25.8205C12.2572 27.1777 13.1994 28.5083 14.1259 29.8496C15.0737 31.1762 16.0202 32.504 17.0138 33.7997C16.1752 32.3988 15.2897 31.0297 14.4054 29.6598C13.5219 28.3316 12.6495 26.9935 11.7406 25.68Z" fill="#3E6B82"/>
<path d="M18.6843 18.8681C18.1852 18.9872 16.853 19.3688 16.853 19.9866C16.853 20.6044 18.1784 21.0372 18.6843 21.1047C20.8571 21.3954 19.6055 20.604 19.6055 19.9866C19.6055 19.3692 20.653 18.3936 18.6843 18.8681Z" fill="#FE7058"/>
<path d="M15.191 18.8681C15.6901 18.9872 17.0227 19.3688 17.0227 19.9866C17.0227 20.6044 15.6969 21.0372 15.191 21.1047C13.0182 21.3954 14.2698 20.604 14.2698 19.9866C14.2698 19.3692 13.2231 18.3936 15.191 18.8681Z" fill="#FE7058"/>
<path d="M17.1889 21.0077C17.7748 20.8692 18.1375 20.282 17.999 19.6961C17.8605 19.1101 17.2733 18.7474 16.6874 18.8859C16.1014 19.0244 15.7387 19.6117 15.8772 20.1976C16.0157 20.7835 16.603 21.1462 17.1889 21.0077Z" fill="#EA6453"/>
</g>
<defs>
<clipPath id="clip0_1675_7152">
<rect width="33.6" height="33.6" fill="white" transform="translate(0.200195 0.199219)"/>
</clipPath>
</defs>
</svg>
