<svg width="38" height="34" viewBox="0 0 38 34" fill="none" xmlns="http://www.w3.org/2000/svg">
<path d="M37.9 2.82502C37.9 11.2119 31.6541 18.1444 23.5626 19.2149C23.0384 15.2724 21.3034 11.7139 18.7416 8.93061C21.5692 3.88077 26.9734 0.462524 33.175 0.462524H35.5375C36.8443 0.462524 37.9 1.51827 37.9 2.82502ZM0.0999908 7.55002C0.0999908 6.24327 1.15573 5.18752 2.46249 5.18752H4.82499C13.9575 5.18752 21.3625 12.5925 21.3625 21.725V24.0875V31.175C21.3625 32.4818 20.3068 33.5375 19 33.5375C17.6932 33.5375 16.6375 32.4818 16.6375 31.175V24.0875C7.50495 24.0875 0.0999908 16.6826 0.0999908 7.55002Z" fill="white"/>
</svg>
