<svg width="48" height="48" viewBox="0 0 48 48" fill="none" xmlns="http://www.w3.org/2000/svg">
<rect width="48" height="48" fill="white"/>
<g clip-path="url(#clip0_684_4124)">
<path d="M24.9375 13.3571C27.5215 13.3571 29.6163 11.2625 29.6163 8.67856C29.6163 6.09466 27.5215 4 24.9375 4C22.3535 4 20.2588 6.09466 20.2588 8.67856C20.2588 11.2625 22.3535 13.3571 24.9375 13.3571Z" fill="#B473D7"/>
<path d="M24.9376 43.9999C26.4878 43.9999 27.7445 42.7432 27.7445 41.1931C27.7445 39.6429 26.4878 38.3862 24.9376 38.3862C23.3873 38.3862 22.1306 39.6429 22.1306 41.1931C22.1306 42.7432 23.3873 43.9999 24.9376 43.9999Z" fill="#FFC478"/>
<path d="M13.4411 17.65C15.7669 17.65 17.6523 15.7647 17.6523 13.439C17.6523 11.1134 15.7669 9.22803 13.4411 9.22803C11.1154 9.22803 9.22998 11.1134 9.22998 13.439C9.22998 15.7647 11.1154 17.65 13.4411 17.65Z" fill="#B473D7"/>
<path d="M36.4341 38.7689C37.7261 38.7689 38.7735 37.7216 38.7735 36.4296C38.7735 35.1377 37.7261 34.0903 36.4341 34.0903C35.1421 34.0903 34.0947 35.1377 34.0947 36.4296C34.0947 37.7216 35.1421 38.7689 36.4341 38.7689Z" fill="#152CD1"/>
<path d="M8.67884 28.6785C10.7455 28.6785 12.4209 27.0031 12.4209 24.9365C12.4209 22.8699 10.7455 21.1946 8.67884 21.1946C6.61215 21.1946 4.93677 22.8699 4.93677 24.9365C4.93677 27.0031 6.61215 28.6785 8.67884 28.6785Z" fill="#B473D7"/>
<path d="M41.1947 26.8054C42.2277 26.8054 43.065 25.968 43.065 24.9352C43.065 23.9023 42.2277 23.0649 41.1947 23.0649C40.1618 23.0649 39.3245 23.9023 39.3245 24.9352C39.3245 25.968 40.1618 26.8054 41.1947 26.8054Z" fill="#152CD1"/>
<path d="M11.1261 34.1176C9.84632 35.3973 9.84632 37.4679 11.1261 38.7476C12.4043 40.0272 14.478 40.0272 15.7562 38.7476C17.036 37.4679 17.036 35.3973 15.7562 34.1176C14.478 32.8364 12.4058 32.8242 11.1261 34.1176Z" fill="#FFC478"/>
<path d="M36.4325 14.8417C37.2072 14.8417 37.8352 14.2137 37.8352 13.439C37.8352 12.6644 37.2072 12.0364 36.4325 12.0364C35.6578 12.0364 35.0298 12.6644 35.0298 13.439C35.0298 14.2137 35.6578 14.8417 36.4325 14.8417Z" fill="#152CD1"/>
</g>
<defs>
<clipPath id="clip0_684_4124">
<rect width="40" height="40" fill="white" transform="translate(4 4)"/>
</clipPath>
</defs>
</svg>
