<svg width="34" height="34" viewBox="0 0 34 34" fill="none" xmlns="http://www.w3.org/2000/svg">
<path d="M8.90527 9.36985C8.90527 10.1233 9.01089 10.8726 9.2177 11.5971C9.27711 11.8093 9.4703 11.9562 9.69066 11.9566L24.3765 11.9529C24.5954 11.9525 24.7878 11.8075 24.8485 11.5972C25.0546 10.8738 25.1609 10.1221 25.1609 9.36992C25.1609 4.89035 21.5152 1.25003 17.0331 1.25C12.551 1.24997 8.90527 4.89028 8.90527 9.36985Z" fill="#356287"/>
<path d="M10.8657 20.7891C10.8548 20.79 10.844 20.7912 10.8332 20.7928C6.05759 21.0851 2.3003 25.1358 2.3003 30.0941V32.256C2.29978 32.3866 2.35092 32.512 2.44245 32.6046C2.53398 32.6973 2.65842 32.7497 2.78838 32.7502H31.2084C31.273 32.7504 31.3371 32.7378 31.3969 32.7131C31.4567 32.6883 31.511 32.652 31.5568 32.606C31.6025 32.5601 31.6387 32.5055 31.6633 32.4455C31.688 32.3854 31.7005 32.3211 31.7003 32.2561V30.0942C31.7003 25.1359 27.943 21.0852 23.1674 20.7929C23.1566 20.7913 23.1457 20.79 23.1349 20.7891L10.8657 20.7891Z" fill="#5299D3"/>
<path d="M13.5889 16.8066V20.6537V22.7175L17.0515 24.4468L20.4776 22.4666V20.6537V16.8066C18.1813 16.8066 15.8851 16.8066 13.5889 16.8066Z" fill="#FFCCAA"/>
<path d="M8.90479 9.37007C8.90479 10.1235 9.01072 10.8727 9.21753 11.5972C9.27676 11.8095 9.46986 11.9565 9.69023 11.9571H10.7361C10.5173 11.9547 10.3263 11.808 10.2675 11.5972C10.0607 10.8727 9.95479 10.1235 9.95479 9.37007C9.95479 5.06769 13.321 1.54905 17.5581 1.27666C17.3836 1.26535 17.2103 1.25 17.0331 1.25C12.551 1.25 8.90479 4.8905 8.90479 9.37007Z" fill="#2C5170"/>
<path d="M9.07812 12.5526C9.07813 13.7876 10.0283 14.8308 11.2334 14.8308C11.3632 14.8308 11.4918 14.8159 11.6189 14.7914V10.8156V10.3138C11.4914 10.289 11.3625 10.2715 11.2334 10.2715C10.0283 10.2715 9.07812 11.3176 9.07812 12.5526Z" fill="#FFB889"/>
<path d="M24.988 12.5526C24.988 13.7876 24.0378 14.8308 22.8327 14.8308C22.7029 14.8308 22.5743 14.8159 22.4473 14.7914V10.8156V10.3138C22.5747 10.289 22.7036 10.2715 22.8327 10.2715C24.0378 10.2715 24.988 11.3176 24.988 12.5526Z" fill="#FFCCAA"/>
<path d="M13.5889 16.8066V18.9118C14.5701 19.5781 15.7556 19.9679 17.0332 19.9679C18.3107 19.9679 19.496 19.5781 20.4774 18.9118V16.8066C18.1812 16.8066 15.8851 16.8066 13.5889 16.8066Z" fill="#FFB889"/>
<path d="M15.4749 6.18672C15.2211 6.20611 15.0239 6.41576 15.0202 6.67025C15.0051 8.10258 13.8549 9.25319 12.4227 9.25319H11.398C11.1273 9.25427 10.9083 9.47372 10.9077 9.7444V12.807C10.9077 16.1846 13.6482 18.9178 17.0331 18.9178C20.4181 18.9178 23.1595 16.1846 23.1595 12.807V9.7444C23.159 9.47334 22.9394 9.25374 22.6683 9.25319H19.0826C17.5385 9.25319 16.2352 8.12348 16.0017 6.60103C15.9643 6.36464 15.7622 6.18939 15.5229 6.18575C15.5069 6.18529 15.4909 6.18561 15.4749 6.18672H15.4749Z" fill="#FFCCAA"/>
<path d="M10.8654 20.7891C10.8547 20.7901 10.8441 20.7915 10.8336 20.7932C6.058 21.0855 2.3003 25.1363 2.3003 30.0946V32.2561C2.30003 32.3207 2.31245 32.3848 2.33684 32.4446C2.36122 32.5044 2.3971 32.5588 2.44242 32.6047C2.48775 32.6506 2.54163 32.6871 2.60099 32.7121C2.66035 32.7371 2.72403 32.7501 2.78838 32.7503H3.83838C3.77403 32.7501 3.71035 32.7371 3.65099 32.7121C3.59163 32.6871 3.53775 32.6506 3.49242 32.6047C3.4471 32.5588 3.41122 32.5044 3.38684 32.4446C3.36245 32.3848 3.35003 32.3207 3.3503 32.2561V30.0946C3.3503 25.1363 7.108 21.0855 11.8836 20.7932C11.8941 20.7915 11.9047 20.7901 11.9154 20.7891L10.8654 20.7891Z" fill="#3385C8"/>
<path d="M12.7498 18.9434C12.6228 18.9465 12.5019 18.9985 12.4124 19.0886L10.5772 20.9198C10.4855 21.012 10.4341 21.1368 10.4341 21.2668C10.4341 21.3969 10.4855 21.5216 10.5772 21.6138L14.8541 25.8867C14.9462 25.9781 15.0708 26.0294 15.2006 26.0294C15.3304 26.0294 15.455 25.9781 15.5472 25.8867L17.0333 24.4044L18.5157 25.8867C18.5614 25.9327 18.6158 25.9692 18.6757 25.994C18.7356 26.0189 18.7998 26.0318 18.8646 26.0318C18.9295 26.0318 18.9937 26.0189 19.0536 25.994C19.1135 25.9692 19.1678 25.9327 19.2136 25.8867L23.4895 21.6138C23.5811 21.5216 23.6326 21.3969 23.6326 21.2668C23.6326 21.1368 23.5811 21.012 23.4895 20.9198L21.6553 19.0886C21.6091 19.0421 21.5541 19.0053 21.4935 18.9804C21.4329 18.9555 21.368 18.9429 21.3025 18.9434C21.1742 18.9455 21.0517 18.9975 20.9612 19.0886L17.0333 23.0096L13.1064 19.0886C13.0598 19.0416 13.0042 19.0046 12.9429 18.9797C12.8816 18.9547 12.8159 18.9424 12.7498 18.9434Z" fill="#A0C7E7"/>
<path d="M8.09872 28.5572C8.02412 28.5538 7.94966 28.5665 7.88033 28.5942C7.811 28.6219 7.74837 28.6641 7.69665 28.718C7.64492 28.7719 7.60528 28.8361 7.58037 28.9065C7.55546 28.9769 7.54585 29.0518 7.55219 29.1263V32.75H8.59809V29.1263C8.60409 29.0558 8.5958 28.9849 8.57372 28.9177C8.55164 28.8505 8.51622 28.7885 8.46959 28.7354C8.42295 28.6822 8.36607 28.639 8.30234 28.6084C8.23861 28.5778 8.16935 28.5604 8.09872 28.5572Z" fill="#3385C8"/>
<path d="M25.9488 28.5572C25.8742 28.5538 25.7998 28.5665 25.7304 28.5942C25.6611 28.6219 25.5985 28.6641 25.5467 28.718C25.495 28.7719 25.4554 28.8361 25.4305 28.9065C25.4056 28.9769 25.3959 29.0518 25.4023 29.1263V32.75H26.4482V29.1263C26.4542 29.0558 26.4459 28.9849 26.4238 28.9177C26.4017 28.8505 26.3663 28.7885 26.3197 28.7354C26.2731 28.6822 26.2162 28.639 26.1524 28.6084C26.0887 28.5778 26.0195 28.5604 25.9488 28.5572Z" fill="#3385C8"/>
<path d="M11.3974 9.25391C11.1267 9.25507 10.9078 9.47446 10.9072 9.74508V12.8079C10.9072 16.1855 13.6479 18.9192 17.0329 18.9192C17.3057 18.9192 17.5724 18.8952 17.8358 18.8608C14.5209 18.4471 11.9572 15.6348 11.9572 12.2142V9.25391L11.3974 9.25391Z" fill="#FFB889"/>
</svg>
