<svg width="38" height="27" viewBox="0 0 38 27" fill="none" xmlns="http://www.w3.org/2000/svg">
<path d="M10.9675 3.49753C10.9675 5.32256 9.48507 6.80503 7.66004 6.80503C5.83501 6.80503 4.35254 5.32256 4.35254 3.49753C4.35254 1.6725 5.83501 0.190033 7.66004 0.190033C9.48507 0.190033 10.9675 1.6725 10.9675 3.49753ZM3.88004 12.8117C3.28941 13.4732 2.93504 14.3532 2.93504 15.31C2.93504 16.2668 3.28941 17.1469 3.88004 17.8084V12.8117ZM12.4087 9.89991C10.6545 11.4533 9.55004 13.7272 9.55004 16.255C9.55004 18.2809 10.2588 20.1413 11.44 21.6002V22.87C11.44 23.9154 10.5954 24.76 9.55004 24.76H5.77004C4.72463 24.76 3.88004 23.9154 3.88004 22.87V21.2872C1.64747 20.224 0.100037 17.9501 0.100037 15.31C0.100037 11.6541 3.05907 8.69503 6.71504 8.69503H8.60504C10.0225 8.69503 11.3337 9.138 12.4087 9.894V9.89991ZM26.56 22.87V21.6002C27.7413 20.1413 28.45 18.2809 28.45 16.255C28.45 13.7272 27.3456 11.4533 25.5914 9.894C26.6663 9.138 27.9775 8.69503 29.395 8.69503H31.285C34.941 8.69503 37.9 11.6541 37.9 15.31C37.9 17.9501 36.3526 20.224 34.12 21.2872V22.87C34.12 23.9154 33.2754 24.76 32.23 24.76H28.45C27.4046 24.76 26.56 23.9154 26.56 22.87ZM33.6475 3.49753C33.6475 5.32256 32.1651 6.80503 30.34 6.80503C28.515 6.80503 27.0325 5.32256 27.0325 3.49753C27.0325 1.6725 28.515 0.190033 30.34 0.190033C32.1651 0.190033 33.6475 1.6725 33.6475 3.49753ZM34.12 12.8117V17.8143C34.7107 17.1469 35.065 16.2728 35.065 15.3159C35.065 14.3591 34.7107 13.4791 34.12 12.8176V12.8117ZM19 7.75003C16.9151 7.75003 15.22 6.05494 15.22 3.97003C15.22 1.88513 16.9151 0.190033 19 0.190033C21.0849 0.190033 22.78 1.88513 22.78 3.97003C22.78 6.05494 21.0849 7.75003 19 7.75003ZM14.275 16.255C14.275 17.2118 14.6294 18.086 15.22 18.7534V13.7567C14.6294 14.4241 14.275 15.2982 14.275 16.255ZM22.78 13.7567V18.7593C23.3707 18.0919 23.725 17.2178 23.725 16.2609C23.725 15.3041 23.3707 14.4241 22.78 13.7626V13.7567ZM26.56 16.255C26.56 18.8951 25.0126 21.169 22.78 22.2322V24.76C22.78 25.8054 21.9354 26.65 20.89 26.65H17.11C16.0646 26.65 15.22 25.8054 15.22 24.76V22.2322C12.9875 21.169 11.44 18.8951 11.44 16.255C11.44 12.5991 14.3991 9.64003 18.055 9.64003H19.945C23.601 9.64003 26.56 12.5991 26.56 16.255Z" fill="white"/>
</svg>
