<svg width="17" height="16" viewBox="0 0 17 16" fill="none" xmlns="http://www.w3.org/2000/svg">
<path d="M15.9969 5.20625C16.1 5.475 16.0125 5.77812 15.8 5.975L14.4469 7.20625C14.4813 7.46563 14.5 7.73125 14.5 8C14.5 8.26875 14.4813 8.53438 14.4469 8.79375L15.8 10.025C16.0125 10.2219 16.1 10.525 15.9969 10.7937C15.8594 11.1656 15.6938 11.525 15.5063 11.8656L15.3594 12.1187C15.1532 12.4625 14.9219 12.7875 14.6688 13.0969C14.4813 13.3188 14.1782 13.3969 13.9032 13.3094L12.1625 12.7531C11.7438 13.075 11.2532 13.3438 10.7875 13.55L10.3969 15.3344C10.3344 15.6156 10.1157 15.8156 9.82816 15.8906C9.39691 15.9625 8.95316 16 8.47191 16C8.04691 16 7.60316 15.9625 7.17191 15.8906C6.88441 15.8156 6.66566 15.6156 6.60316 15.3344L6.21254 13.55C5.71879 13.3438 5.25629 13.075 4.83754 12.7531L3.09816 13.3094C2.82191 13.3969 2.51723 13.3188 2.33223 13.0969C2.07879 12.7875 1.84754 12.4625 1.64129 12.1187L1.49504 11.8656C1.30535 11.525 1.14035 11.1656 1.00191 10.7937C0.900663 10.525 0.985975 10.2219 1.20035 10.025L2.55223 8.79375C2.51785 8.53438 2.50004 8.26875 2.50004 8C2.50004 7.73125 2.51785 7.46563 2.55223 7.20625L1.20035 5.975C0.985975 5.77812 0.900663 5.47813 1.00191 5.20625C1.14035 4.83438 1.30566 4.475 1.49504 4.13438L1.64098 3.88125C1.84754 3.5375 2.07879 3.2125 2.33223 2.90469C2.51723 2.68125 2.82191 2.60375 3.09816 2.69187L4.83754 3.24688C5.25629 2.92375 5.71879 2.655 6.21254 2.45094L6.60316 0.666562C6.66566 0.382812 6.88441 0.1575 7.17191 0.109687C7.60316 0.0375312 8.04691 0 8.50004 0C8.95316 0 9.39691 0.0375312 9.82816 0.109687C10.1157 0.1575 10.3344 0.382812 10.3969 0.666562L10.7875 2.45094C11.2532 2.655 11.7438 2.92375 12.1625 3.24688L13.9032 2.69187C14.1782 2.60375 14.4813 2.68125 14.6688 2.90469C14.9219 3.2125 15.1532 3.5375 15.3594 3.88125L15.5063 4.13438C15.6938 4.475 15.8594 4.83438 15.9969 5.20625ZM8.50004 10.5C9.88129 10.5 11 9.38125 11 7.97188C11 6.61875 9.88129 5.47188 8.50004 5.47188C7.11879 5.47188 6.00004 6.61875 6.00004 7.97188C6.00004 9.38125 7.11879 10.5 8.50004 10.5Z" fill="#7610B5"/>
</svg>
