<svg width="88" height="40" viewBox="0 0 88 40" fill="none" xmlns="http://www.w3.org/2000/svg">
<g clip-path="url(#clip0_956_849)">
<path d="M87.5 0H0V39.7727H87.5V0Z" fill="white"/>
<path fillRule="evenodd" clipRule="evenodd" d="M14.4403 24.7679L11.5284 22.4574L8.13405 19.7634L6.92218 18.802L8.14405 17.8574L11.5572 15.2175L14.4403 13.0561V15.9645L10.7709 18.802L14.4403 21.7141V24.7679Z" fill="#152CD1"/>
<path fillRule="evenodd" clipRule="evenodd" d="M15.4465 24.7679L18.359 22.4574L21.7534 19.7634L22.9653 18.802L21.7434 17.8574L18.3297 15.2175L15.4465 13.0561V15.9645L19.1165 18.802L15.4465 21.7141V24.7679Z" fill="#152CD1"/>
<path d="M27.3413 20.6245C27.3854 21.407 27.5711 22.0424 27.8985 22.5307C28.5218 23.4447 29.6204 23.9017 31.1944 23.9017C31.849 23.9097 32.5003 23.8082 33.121 23.6012C34.2418 23.2131 34.8022 22.5182 34.8022 21.5166C34.8022 20.7654 34.5661 20.2301 34.0939 19.9108C33.6154 19.5978 32.8662 19.3255 31.8462 19.0939L29.9669 18.6713C28.7392 18.3958 27.8704 18.0922 27.3606 17.7604C26.4792 17.1845 26.0385 16.3238 26.0385 15.1781C26.0385 13.9386 26.4697 12.9213 27.3322 12.1262C28.1947 11.3312 29.4162 10.9336 30.9965 10.9337C32.4507 10.9337 33.6862 11.2827 34.7032 11.9807C35.7202 12.6787 36.2286 13.7946 36.2282 15.3283H34.4621C34.3676 14.5896 34.1661 14.0231 33.8576 13.6287C33.2847 12.9087 32.312 12.5488 30.9394 12.5488C29.8313 12.5488 29.0349 12.7804 28.5501 13.2437C28.0653 13.7069 27.8229 14.2453 27.8229 14.8589C27.8229 15.535 28.1063 16.0295 28.6729 16.3425C29.0444 16.5428 29.8849 16.7932 31.1945 17.0937L33.1399 17.535C34.078 17.7478 34.8021 18.0389 35.3121 18.4083C36.1934 19.0531 36.6341 19.9891 36.6341 21.2163C36.6341 22.7438 36.0753 23.8362 34.9577 24.4935C33.8402 25.1508 32.5417 25.4795 31.0622 25.4794C29.3372 25.4794 27.9867 25.0412 27.0107 24.1648C26.0349 23.2948 25.5564 22.1148 25.5752 20.6247L27.3413 20.6245ZM43.0561 23.9393C43.8493 23.9393 44.5088 23.6091 45.0346 22.9487C45.5603 22.2882 45.8231 21.3006 45.8231 19.9858C45.8231 19.1845 45.7066 18.4959 45.4737 17.92C45.033 16.8119 44.2271 16.2579 43.0561 16.2579C41.8787 16.2579 41.0728 16.8432 40.6384 18.0139C40.4054 18.6399 40.2889 19.4349 40.2889 20.399C40.2889 21.1752 40.4054 21.8357 40.6384 22.3803C41.0791 23.4196 41.885 23.9392 43.0561 23.9392V23.9393ZM38.6552 15.0654H40.3079V16.3989C40.6089 15.9787 40.987 15.6187 41.4222 15.3378C41.9952 14.9622 42.6688 14.7744 43.4432 14.7744C44.5891 14.7744 45.5618 15.211 46.3614 16.0843C47.1611 16.9576 47.5608 18.205 47.5608 19.8264C47.5608 22.0174 46.9847 23.5825 45.8326 24.5215C45.1165 25.1113 44.2123 25.4276 43.2826 25.4136C42.5208 25.4136 41.8817 25.2477 41.3654 24.916C41.0633 24.7282 40.7265 24.4057 40.3551 23.9487V29.0852H38.6551L38.6552 15.0654ZM49.5913 15.0185H51.2062V16.7557C51.3385 16.4176 51.6627 16.006 52.179 15.5208C52.6953 15.0357 53.2903 14.7931 53.9639 14.7931C53.9954 14.7931 54.049 14.7962 54.1245 14.8025C54.2 14.8087 54.3292 14.8211 54.512 14.8397V16.6239C54.4199 16.6064 54.3269 16.5939 54.2334 16.5866C54.1484 16.5804 54.0555 16.5772 53.9547 16.5772C53.0985 16.5772 52.4406 16.8511 51.9809 17.3989C51.5287 17.9261 51.2837 18.5982 51.2912 19.2911V25.0755H49.5912L49.5913 15.0185ZM55.9851 15.0654H57.7133V25.0755H55.9849L55.9851 15.0654ZM55.9851 11.2811H57.7133V13.1968H55.9849L55.9851 11.2811ZM60.2821 15.0185H61.8966V16.4458C62.3751 15.8575 62.8819 15.4349 63.4171 15.1781C63.9748 14.9163 64.5853 14.7845 65.202 14.7928C66.6375 14.7928 67.6071 15.2904 68.1107 16.2858C68.3878 16.8304 68.5263 17.6098 68.5263 18.624V25.0755H66.7982V18.737C66.7982 18.1235 66.7069 17.629 66.5243 17.2534C66.2221 16.6274 65.6743 16.3144 64.8811 16.3144C64.5462 16.3055 64.212 16.3466 63.8894 16.4364C63.4235 16.5741 63.0143 16.8497 62.6617 17.263C62.3983 17.5574 62.2089 17.9098 62.1092 18.2912C62.0242 18.6449 61.9817 19.1503 61.9817 19.8075V25.0755H60.2817L60.2821 15.0185ZM74.6084 14.8402C75.4017 14.8402 76.0942 15.0343 76.6861 15.4224C77.0071 15.6415 77.3345 15.9608 77.6682 16.3802V15.1125H79.2359V24.2585C79.2359 25.5356 79.0471 26.5435 78.6693 27.2822C77.9641 28.6469 76.6325 29.3293 74.6744 29.3293C73.5852 29.3293 72.6692 29.0867 71.9262 28.6015C71.1833 28.1164 70.7678 27.3574 70.6797 26.3246H72.4079C72.4898 26.7753 72.6535 27.1228 72.899 27.3669C73.283 27.7425 73.8875 27.9303 74.7122 27.9303C76.0155 27.9303 76.8686 27.4733 77.2716 26.5593C77.5108 26.021 77.621 25.06 77.6021 23.6765C77.2621 24.1898 76.8529 24.5717 76.3744 24.8221C75.896 25.0726 75.2632 25.1977 74.4761 25.1976C73.3806 25.1976 72.4221 24.811 71.6004 24.0379C70.7788 23.2647 70.368 21.9861 70.368 20.2019C70.368 18.5179 70.782 17.2033 71.6099 16.258C72.4378 15.3127 73.4373 14.8402 74.6084 14.8402ZM77.6682 20.0045C77.6682 18.7587 77.41 17.8353 76.8937 17.2343C76.3775 16.6333 75.7195 16.3328 74.9199 16.3328C73.7237 16.3328 72.9052 16.8901 72.4645 18.0045C72.2317 18.5993 72.1153 19.3787 72.1153 20.3428C72.1153 21.4759 72.3467 22.3382 72.8094 22.9298C73.2722 23.5214 73.8939 23.8172 74.6746 23.8172C75.896 23.8172 76.7554 23.2694 77.2528 22.1739C77.5297 21.5541 77.6682 20.831 77.6682 20.0045Z" fill="#152CD1"/>
</g>
<defs>
<clipPath id="clip0_956_849">
<rect width="87.5" height="40" fill="white"/>
</clipPath>
</defs>
</svg>
