<svg width="96" height="96" viewBox="0 0 96 96" fill="none" xmlns="http://www.w3.org/2000/svg">
<circle cx="48" cy="48" r="48" fill="#1E9940" fill-opacity="0.24"/>
<circle cx="48" cy="48" r="40" fill="#1E9940" fill-opacity="0.32"/>
<circle cx="48" cy="48" r="32" fill="#1E9940" fill-opacity="0.4"/>
<g clip-path="url(#clip0_667_2698)">
<circle cx="48.0003" cy="48" r="17.1429" fill="white"/>
<path d="M48 72C61.2562 72 72 61.2562 72 48C72 34.7438 61.2562 24 48 24C34.7438 24 24 34.7438 24 48C24 61.2562 34.7438 72 48 72ZM58.5938 43.5938L46.5938 55.5938C45.7125 56.475 44.2875 56.475 43.4156 55.5938L37.4156 49.5938C36.5344 48.7125 36.5344 47.2875 37.4156 46.4156C38.2969 45.5438 39.7219 45.5344 40.5938 46.4156L45 50.8219L55.4062 40.4062C56.2875 39.525 57.7125 39.525 58.5844 40.4062C59.4562 41.2875 59.4656 42.7125 58.5844 43.5844L58.5938 43.5938Z" fill="#1E9940"/>
</g>
<defs>
<clipPath id="clip0_667_2698">
<rect width="48" height="48" fill="white" transform="translate(24 24)"/>
</clipPath>
</defs>
</svg>
