<svg width="38" height="31" viewBox="0 0 38 31" fill="none" xmlns="http://www.w3.org/2000/svg">
<path d="M31.6985 0.715342C32.2537 0.16175 33.1514 0.16175 33.6534 0.715283L37.4334 4.49475C37.7524 4.76053 37.9 5.1214 37.9 5.49704C37.9 5.87327 37.7524 6.23591 37.4334 6.44854L33.6534 10.2285C33.1514 10.831 32.2537 10.831 31.6985 10.2285C31.1492 9.72651 31.1492 8.82876 31.6985 8.27357L33.0628 6.86198H22.78C21.9945 6.86198 21.3625 6.27726 21.3625 5.49704C21.3625 4.71446 21.9945 4.07954 22.78 4.07954L33.0628 4.02698L31.6985 2.71992C31.1492 2.16651 31.1492 1.26876 31.6985 0.715342ZM6.24844 22.5135L4.93962 23.9251L15.1669 23.872C16.0056 23.872 16.5844 24.5571 16.5844 25.2895C16.5844 26.1223 16.0056 26.707 15.1669 26.707L4.94021 26.7601L6.24844 28.1186C6.85088 28.6738 6.85088 29.5715 6.24844 30.0735C5.74641 30.676 4.84866 30.676 4.29525 30.0735L0.515187 26.2935C0.249347 26.0809 0.100019 25.7206 0.100037 25.2895C0.100037 24.9646 0.249406 24.6043 0.515246 24.3386L4.29525 20.5586C4.84866 20.0093 5.74641 20.0093 6.24844 20.5586C6.85088 21.1138 6.85088 22.0115 6.24844 22.5135ZM5.71688 4.08013H20.0573C19.8328 4.5042 19.7088 4.98615 19.7088 5.44448C19.7088 7.19273 21.0849 8.51573 22.78 8.51573H28.515C28.7099 9.60248 29.3301 10.4884 30.1865 11.0436C30.2869 11.1854 30.405 11.3212 30.529 11.4511C31.728 12.6501 33.6771 12.6501 34.876 11.4511L36.01 10.3112V22.9801C36.01 25.065 34.3149 26.7601 32.23 26.7601H17.9428C18.1673 26.3349 18.2381 25.8565 18.2381 25.2895C18.2381 23.6475 16.9151 22.2182 15.1669 22.2182L9.48507 22.2714C9.28425 21.2378 8.67001 20.3518 7.8136 19.7967C7.71319 19.6549 7.59507 19.5191 7.47104 19.3891C6.27207 18.1902 4.32537 18.1902 3.12581 19.3891L1.93688 20.529V7.86013C1.93688 5.77227 3.68218 4.08013 5.71688 4.08013ZM5.71688 11.6401C7.85494 11.6401 9.49688 9.94504 9.49688 7.86013H5.71688V11.6401ZM32.23 22.9801V19.2001C30.1451 19.2001 28.45 20.8952 28.45 22.9801H32.23ZM18.9469 21.0901C22.1303 21.0901 24.67 18.5504 24.67 15.4201C24.67 12.2367 22.1303 9.75013 18.9469 9.75013C15.8166 9.75013 13.2769 12.2367 13.2769 15.4201C13.2769 18.5504 15.8166 21.0901 18.9469 21.0901Z" fill="white"/>
</svg>
