<svg width="34" height="34" viewBox="0 0 34 34" fill="none" xmlns="http://www.w3.org/2000/svg">
<g clip-path="url(#clip0_1675_7139)">
<path d="M28.1477 30.3789V33.2208C28.1477 33.5406 27.8885 33.7999 27.5687 33.7999H6.43203C6.11223 33.7999 5.85295 33.5406 5.85295 33.2208V30.3789C5.85295 28.1936 7.15227 26.3108 9.02055 25.4618C8.25825 24.8552 7.09639 24.04 6.25107 22.2862C5.07372 19.8469 5.27524 16.9693 6.77514 14.7168C7.5902 13.4935 8.02452 12.0574 8.02452 10.5879V7.45146C8.02452 3.45374 11.2654 0.212891 15.2631 0.212891H18.7376C22.7356 0.212891 25.9762 3.45483 25.9762 7.45284C25.9762 10.7732 25.8951 11.4236 26.2954 12.7443C26.8604 14.6119 27.6066 14.843 28.1818 16.7436C29.0859 19.7313 28.0859 22.9896 25.6215 24.9514L24.9801 25.4618C26.8484 26.3108 28.1477 28.1936 28.1477 30.3789Z" fill="#FFEBD2"/>
<path d="M19.892 22.8983C18.063 23.7144 15.9129 23.7034 14.1084 22.8983C14.2747 22.3796 14.2496 22.02 14.2496 21.4629C15.9623 22.1758 17.9568 22.2096 19.7509 21.4629C19.7509 22.0117 19.7247 22.3765 19.892 22.8983Z" fill="#FFDFBA"/>
<path d="M28.1478 30.3778V33.2196C28.1478 33.5396 27.8887 33.7987 27.5687 33.7987H6.43211C6.11217 33.7987 5.85303 33.5396 5.85303 33.2196V30.3778C5.85303 27.3979 8.26883 24.98 11.2508 24.98C11.9132 24.98 12.5255 24.7657 13.0221 24.4023L13.1524 25.2456C15.4181 26.9995 18.5828 26.9995 20.8485 25.2456L20.9787 24.4023C22.3279 25.3896 23.087 24.6017 24.9802 25.4606C26.8485 26.3097 28.1478 28.1925 28.1478 30.3778Z" fill="#FFA4B8"/>
<path d="M20.8484 25.2461L19.531 33.7992H14.4698L13.1523 25.2461C15.418 27 18.5827 27 20.8484 25.2461Z" fill="#E3F7FC"/>
<path d="M14.8985 33.7992H14.4698L13.1523 25.2461C14.0273 25.9243 14.3461 25.8307 14.4158 26.2834L15.4709 33.1319C15.5249 33.4828 15.2535 33.7992 14.8985 33.7992Z" fill="#CAF1FC"/>
<path d="M27.2183 14.706C29.4311 18.0166 28.7359 22.472 25.6215 24.9514L24.9801 25.4618C24.3004 25.1534 23.5454 24.9811 22.7499 24.9811C21.0996 24.9811 19.751 23.6478 19.751 21.9887V21.4632C22.3438 20.3846 24.1665 17.8272 24.1665 14.8442V11.5673C24.1665 11.121 23.9105 10.7141 23.5074 10.5225C22.7178 10.1472 22.0415 9.57605 21.5398 8.85538C21.1816 8.34079 20.4855 8.19356 19.9581 8.53269C17.3827 10.1886 14.3045 11.0628 11.0467 10.893C10.3866 10.8587 9.83413 11.389 9.83413 12.0499V14.8442C9.83413 17.8272 11.6568 20.3846 14.2497 21.4632V21.9887C14.2497 23.646 12.9029 24.9811 11.2507 24.9811C10.4552 24.9811 9.70021 25.1534 9.02051 25.4618C8.26126 24.8576 7.09672 24.0408 6.25104 22.2862C5.07448 19.8486 5.27426 16.9708 6.77511 14.7168C7.59017 13.4935 8.02449 12.0574 8.02449 10.5879C8.02449 10.5438 8.02449 9.17859 8.02449 7.45146C8.02449 3.45432 11.2652 0.212891 15.2631 0.212891H18.7376C22.7353 0.212891 25.9761 3.45374 25.9761 7.45146V10.5879C25.9761 12.053 26.4039 13.4884 27.2183 14.706Z" fill="#42434D"/>
<path d="M22.0074 0.991283C22.7466 1.36624 22.4254 2.49452 21.6002 2.41641C21.0527 2.36458 17.362 2.38384 17.4344 2.38384C13.4366 2.38384 10.1958 5.62469 10.1958 9.62241V11.9509C10.1958 12.4709 9.83387 12.4541 9.83387 12.8754C9.83387 16.699 9.84936 15.0092 9.79326 15.1742C9.22539 16.8447 8.54345 17.0865 7.9902 18.9146C7.68886 19.9103 7.59983 20.9357 7.70421 21.9308C7.78941 22.743 6.65852 23.1315 6.25077 22.2856C5.08182 19.8638 5.26488 16.9838 6.77485 14.7162C7.58991 13.4929 8.02422 12.0567 8.02422 10.5873V7.45084C8.02422 3.45312 11.2651 0.212269 15.2628 0.212269C18.878 0.212269 20.1213 0.0344892 22.0074 0.991283Z" fill="#585966"/>
<path d="M14.6556 21.6115C11.7039 20.5738 9.83398 17.8584 9.83398 14.8435V12.0494C9.83398 11.3907 10.3834 10.8608 11.0407 10.8919C11.0407 10.8919 11.2284 10.9017 11.3736 10.9057C11.9686 10.9238 12.4399 11.4153 12.4399 12.0103V13.6853C12.4399 16.2065 13.7254 18.3715 15.6263 19.6441C16.7077 20.3679 15.8833 22.0422 14.6556 21.6115Z" fill="#FFF3E4"/>
<path d="M13.368 26.6463C10.0612 26.7362 7.95213 29.278 7.95213 32.0427V33.2196C7.95213 33.5396 7.69299 33.7987 7.37305 33.7987H6.43203C6.11209 33.7987 5.85295 33.5396 5.85295 33.2196C5.85295 30.0825 5.84955 30.2793 5.86236 30.0622C5.94756 28.2743 6.99643 26.4891 8.82872 25.5526C10.8078 24.5622 11.6844 25.4065 13.022 24.4023C13.1866 25.4676 13.1095 24.9679 13.368 26.6463Z" fill="#FFBFCB"/>
<path d="M20.6323 26.6463C23.9392 26.7362 26.0482 29.278 26.0482 32.0427V33.2196C26.0482 33.5396 26.3074 33.7987 26.6273 33.7987H27.5683C27.8883 33.7987 28.1474 33.5396 28.1474 33.2196C28.1474 30.0825 28.1508 30.2793 28.138 30.0622C28.0528 28.2743 27.0039 26.4891 25.1716 25.5526C23.1925 24.5622 22.3159 25.4065 20.9783 24.4023C20.8137 25.4676 20.8908 24.9679 20.6323 26.6463Z" fill="#FF8CA5"/>
</g>
<defs>
<clipPath id="clip0_1675_7139">
<rect width="33.6" height="33.6" fill="white" transform="translate(0.200195 0.199219)"/>
</clipPath>
</defs>
</svg>
